<svg xmlns="http://www.w3.org/2000/svg" version="1.1" xmlns:xlink="http://www.w3.org/1999/xlink" xmlns:svgjs="http://svgjs.dev/svgjs" width="2000" height="1500" viewBox="0 0 2000 1500"><rect width="2000" height="1500" fill="#000000"></rect><g transform="matrix(0.75,0,0,0.75,249.090909090909,486.2635826697833)"><svg viewBox="0 0 396 139" data-background-color="#000000" preserveAspectRatio="xMidYMid meet" height="702" width="2000" xmlns="http://www.w3.org/2000/svg" xmlns:xlink="http://www.w3.org/1999/xlink"><g id="tight-bounds" transform="matrix(1,0,0,1,0.24000000000003752,0.12841787065551102)"><svg viewBox="0 0 395.5199999999999 138.743164258689" height="138.743164258689" width="395.5199999999999"><g><svg viewBox="0 0 696.8090429806196 244.43135999999998" height="138.743164258689" width="395.5199999999999"><g transform="matrix(1,0,0,1,0,74.0467149373764)"><svg viewBox="0 0 395.52 96.3379301252472" height="96.3379301252472" width="395.52"><g id="textblocktransform"><svg viewBox="0 0 395.52 96.3379301252472" height="96.3379301252472" width="395.52" id="textblock"><g><svg viewBox="0 0 395.52 96.3379301252472" height="96.3379301252472" width="395.52"><g transform="matrix(1,0,0,1,0,0)"><svg width="395.52" viewBox="0 -36.5 151.69 36.95" height="96.3379301252472" data-palette-color="#ffffff"><path d="M0.15 0.15L0.15 0.15 0-1.3Q2.35-1.75 3.35-2.27 4.35-2.8 4.65-3.75L4.65-3.75 14.6-34.2 18.8-34.7 30.45-3.45Q30.8-2.6 31.63-2.15 32.45-1.7 34.7-1.3L34.7-1.3 34.55 0.15Q32.9 0.05 31.3 0.03 29.7 0 27.9 0L27.9 0Q23.95 0 20.85 0.15L20.85 0.15 20.7-1.3Q23.3-1.8 24.2-2.2 25.1-2.6 25.1-3.2L25.1-3.2 22.35-12.1 11.05-12.1 8.35-3.2Q8.35-2.6 9.3-2.2 10.25-1.8 12.65-1.3L12.65-1.3 12.5 0.15Q10.85 0.05 9.25 0.03 7.65 0 5.85 0L5.85 0Q4.3 0 3.2 0.03 2.1 0.05 0.15 0.15ZM16.3-29.5L11.75-14.4 21.55-14.4 16.5-29.5 16.3-29.5ZM44.35-23L44.35-23Q47.45-23 49.17-22.38 50.9-21.75 50.9-21.75L50.9-21.75Q50.9-20.65 50.95-19.25 51-17.85 51.2-16.8L51.2-16.8 49.9-16.35Q49.25-19 48.05-19.95 46.85-20.9 44.95-20.9L44.95-20.9Q43.25-20.9 42.22-19.95 41.2-19 41.2-17.7L41.2-17.7Q41.2-16.8 41.75-15.83 42.3-14.85 43.8-14L43.8-14 48.9-11.2Q50.45-10.35 51.32-9.05 52.2-7.75 52.2-5.85L52.2-5.85Q52.2-4.35 51.4-2.9 50.6-1.45 48.82-0.5 47.05 0.45 44.2 0.45L44.2 0.45Q42.7 0.45 40.77 0.15 38.85-0.15 36.7-0.8L36.7-0.8Q36.85-1.55 36.97-2.63 37.1-3.7 37.2-4.78 37.3-5.85 37.3-6.55L37.3-6.55 38.6-7Q39.05-5.25 39.5-3.98 39.95-2.7 40.92-2.05 41.9-1.4 43.9-1.4L43.9-1.4Q46.05-1.4 47.15-2.45 48.25-3.5 48.25-4.8L48.25-4.8Q48.25-5.75 47.67-6.65 47.1-7.55 45.9-8.2L45.9-8.2 40.5-11.2Q38.8-12.1 38-13.55 37.2-15 37.2-16.55L37.2-16.55Q37.2-18.15 38.02-19.63 38.85-21.1 40.45-22.05 42.05-23 44.35-23ZM78.3-12.15L78.3-12.15Q78.3-9.75 77.62-7.5 76.95-5.25 75.55-3.45 74.15-1.65 71.87-0.6 69.6 0.45 66.35 0.45L66.35 0.45Q60.75 0.45 58.25-2.53 55.75-5.5 55.75-10.3L55.75-10.3Q55.75-12.7 56.42-14.95 57.1-17.2 58.5-19.03 59.9-20.85 62.2-21.93 64.5-23 67.7-23L67.7-23Q71.45-23 73.77-21.63 76.1-20.25 77.2-17.8 78.3-15.35 78.3-12.15ZM74-10.3L74-10.3Q74-12.85 73.42-15.2 72.85-17.55 71.37-19.05 69.9-20.55 67.15-20.55L67.15-20.55Q64.95-20.55 63.55-19.53 62.15-18.5 61.4-17 60.65-15.5 60.35-14 60.05-12.5 60.05-11.5L60.05-11.5Q60.05-9.05 60.7-6.88 61.35-4.7 62.85-3.33 64.35-1.95 66.9-1.95L66.9-1.95Q68.9-1.95 70.27-2.83 71.65-3.7 72.47-5.05 73.3-6.4 73.65-7.83 74-9.25 74-10.3ZM100.69-4.5L100.69-4.5 101.29-2.85Q99.59-1.5 97.42-0.53 95.24 0.45 92.44 0.45L92.44 0.45Q88.94 0.45 86.62-1.03 84.29-2.5 83.17-5.05 82.04-7.6 82.04-10.75L82.04-10.75Q82.04-13 82.77-15.18 83.49-17.35 84.92-19.13 86.34-20.9 88.47-21.95 90.59-23 93.44-23L93.44-23Q95.59-23 97.29-22.28 98.99-21.55 99.99-20.73 100.99-19.9 100.99-19.6L100.99-19.6Q100.99-18.95 100.69-17.88 100.39-16.8 99.79-15.95L99.79-15.95 98.59-15.95Q98.29-16.8 97.59-17.8 96.89-18.8 95.74-19.55 94.59-20.3 92.89-20.3L92.89-20.3Q90.69-20.3 89.24-18.93 87.79-17.55 87.12-15.43 86.44-13.3 86.44-11.1L86.44-11.1Q86.44-6.55 88.49-4.53 90.54-2.5 93.74-2.5L93.74-2.5Q95.34-2.5 97.24-3.03 99.14-3.55 100.69-4.5ZM110.44-22.95L110.44-22.95 111.39-22.5Q111.39-21.85 111.37-20.5 111.34-19.15 111.34-17.53 111.34-15.9 111.32-14.28 111.29-12.65 111.29-11.45L111.29-11.45Q111.29-7.8 111.42-5.85 111.54-3.9 111.67-3.15 111.79-2.4 111.79-2.4L111.79-2.4Q111.84-2.15 112.52-1.9 113.19-1.65 114.02-1.5 114.84-1.35 115.34-1.3L115.34-1.3 115.19 0.15Q113.99 0.05 112.37 0.03 110.74 0 109.44 0L109.44 0Q108.19 0 106.44 0.03 104.69 0.05 103.49 0.15L103.49 0.15 103.64-1.3Q104.19-1.35 104.99-1.5 105.79-1.65 106.44-1.9 107.09-2.15 107.14-2.4L107.14-2.4Q107.14-2.4 107.24-3.15 107.34-3.9 107.44-5.85 107.54-7.8 107.54-11.45L107.54-11.45Q107.54-15.1 107.44-16.88 107.34-18.65 107.24-19.23 107.14-19.8 107.14-19.8L107.14-19.8 103.94-20.75 103.84-22.05Q104.74-22.05 105.97-22.18 107.19-22.3 108.39-22.53 109.59-22.75 110.44-22.95ZM109.29-28.15L109.29-28.15Q108.19-28.15 107.44-28.93 106.69-29.7 106.69-30.85L106.69-30.85Q106.69-31.95 107.44-32.7 108.19-33.45 109.29-33.45L109.29-33.45Q110.39-33.45 111.14-32.7 111.89-31.95 111.89-30.85L111.89-30.85Q111.89-29.7 111.14-28.93 110.39-28.15 109.29-28.15ZM137.99-2.6L137.99-2.6 138.49-1.3Q136.59 0.45 134.34 0.45L134.34 0.45Q133.09 0.45 132.09-0.33 131.09-1.1 130.84-2.8L130.84-2.8Q128.99-1.4 127.16-0.48 125.34 0.45 123.24 0.45L123.24 0.45Q121.24 0.45 119.66-0.8 118.09-2.05 118.09-4.75L118.09-4.75Q118.09-6.55 119.24-8.28 120.39-10 123.16-11.23 125.94-12.45 130.69-12.75L130.69-12.75 130.69-17.4Q130.69-18.85 129.61-19.58 128.54-20.3 127.04-20.3L127.04-20.3Q124.84-20.3 123.79-19.25 122.74-18.2 122.74-16.65L122.74-16.65Q122.74-16.05 122.89-15.3L122.89-15.3 121.79-14.8Q120.74-15.35 119.89-16.32 119.04-17.3 119.04-17.7L119.04-17.7Q119.04-18.05 119.66-18.9 120.29-19.75 121.54-20.7 122.79-21.65 124.59-22.33 126.39-23 128.74-23L128.74-23Q130.29-23 131.56-22.55 132.84-22.1 133.59-20.95 134.34-19.8 134.34-17.65L134.34-17.65Q134.34-17.15 134.36-15.85 134.39-14.55 134.44-12.85 134.49-11.15 134.51-9.43 134.54-7.7 134.59-6.4 134.64-5.1 134.64-4.6L134.64-4.6Q134.69-3.25 135.21-2.73 135.74-2.2 136.44-2.2L136.44-2.2Q136.74-2.2 137.14-2.3 137.54-2.4 137.99-2.6ZM130.69-4.7L130.69-4.7 130.69-10.5Q126.29-10.4 124.29-8.85 122.29-7.3 122.29-5.55L122.29-5.55Q122.29-4.05 123.19-3.3 124.09-2.55 125.54-2.55L125.54-2.55Q126.64-2.55 127.96-3.08 129.29-3.6 130.69-4.7ZM147.64-17.6L147.64-17.6Q147.64-13.1 147.71-10.25 147.79-7.4 147.89-5.75 147.99-4.1 148.06-3.38 148.14-2.65 148.19-2.4L148.19-2.4Q148.24-2.15 148.89-1.9 149.54-1.65 150.36-1.5 151.19-1.35 151.69-1.3L151.69-1.3 151.54 0.15Q150.34 0.05 148.74 0.03 147.14 0 145.84 0L145.84 0Q144.59 0 142.86 0.03 141.14 0.05 139.94 0.15L139.94 0.15 140.09-1.3Q140.64-1.35 141.41-1.5 142.19-1.65 142.84-1.9 143.49-2.15 143.54-2.4L143.54-2.4Q143.54-2.4 143.59-3.13 143.64-3.85 143.71-5.63 143.79-7.4 143.84-10.53 143.89-13.65 143.89-18.5L143.89-18.5Q143.89-23.3 143.84-26.25 143.79-29.2 143.69-30.75 143.59-32.3 143.54-32.83 143.49-33.35 143.49-33.35L143.49-33.35 140.29-34.3 140.19-35.6Q141.09-35.6 142.31-35.73 143.54-35.85 144.74-36.08 145.94-36.3 146.79-36.5L146.79-36.5 147.74-36.05Q147.74-36.05 147.69-31.4 147.64-26.75 147.64-17.6Z" opacity="1" transform="matrix(1,0,0,1,0,0)" fill="#ffffff" class="wordmark-text-0" data-fill-palette-color="primary" id="text-0"></path></svg></g></svg></g></svg></g></svg></g><g transform="matrix(1,0,0,1,452.3776829806196,0)"><svg viewBox="0 0 244.43135999999998 244.43135999999998" height="244.43135999999998" width="244.43135999999998"><g><svg viewBox="0 0 244.43135999999998 244.43135999999998" height="244.43135999999998" width="244.43135999999998"><g transform="matrix(1,0,0,1,64.60265593644992,68.4595947858926)"><svg viewBox="0 0 115.22604812710014 107.51217042821477" height="107.51217042821477" width="115.22604812710014"><g><svg xmlns="http://www.w3.org/2000/svg" xmlns:xlink="http://www.w3.org/1999/xlink" version="1.1" x="0" y="0" viewBox="3.1 1.8 95.60000000000001 89.2" style="enable-background:new 0 0 100 100;" xml:space="preserve" height="107.51217042821477" width="115.22604812710014" class="icon-dxe-0" data-fill-palette-color="accent" id="dxe-0"><rect x="55" y="89" width="3" height="2" fill="#7d74ff" data-fill-palette-color="accent"></rect><path d="M74.8 91H74V89H74.8C76.4 89 77.9 88.9 79.3 88.7L79.6 90.7C78.1 90.9 76.5 91 74.8 91" fill="#7d74ff" data-fill-palette-color="accent"></path><rect x="67" y="89" width="5" height="2" fill="#7d74ff" data-fill-palette-color="accent"></rect><rect x="60" y="89" width="5" height="2" fill="#7d74ff" data-fill-palette-color="accent"></rect><path d="M81.7 90.3L81.3 88.3C83 87.9 84.5 87.4 86 86.8L86.8 88.6C85.2 89.4 83.5 89.9 81.7 90.3" fill="#7d74ff" data-fill-palette-color="accent"></path><path d="M88.7 87.7L87.7 86C89.1 85.2 90.4 84.2 91.6 83.1L93 84.5C91.7 85.7 90.3 86.8 88.7 87.7" fill="#7d74ff" data-fill-palette-color="accent"></path><path d="M94.4 82.9L92.8 81.6C93.8 80.3 94.7 79 95.3 77.5L97.1 78.3C96.5 79.9 95.6 81.5 94.4 82.9" fill="#7d74ff" data-fill-palette-color="accent"></path><path d="M97.9 76.2L96 75.7C96.4 74.2 96.7 72.6 96.7 71L98.7 70.9C98.6 72.8 98.4 74.5 97.9 76.2" fill="#7d74ff" data-fill-palette-color="accent"></path><path d="M96.5 69C96.3 67.4 95.9 65.8 95.2 64.4L97 63.6C97.7 65.3 98.2 67 98.4 68.8z" fill="#7d74ff" data-fill-palette-color="accent"></path><path d="M94.4 62.6C93.6 61.2 92.6 59.9 91.4 58.8L92.8 57.4C94.1 58.7 95.2 60.1 96.1 61.6z" fill="#7d74ff" data-fill-palette-color="accent"></path><path d="M90 57.5C88.7 56.5 87.3 55.7 85.8 55L86.6 53.2C88.3 53.9 89.8 54.8 91.2 55.9z" fill="#7d74ff" data-fill-palette-color="accent"></path><path d="M83.9 54.4C82.4 53.9 80.8 53.5 79.1 53.3L79.4 51.3C81.2 51.5 82.9 51.9 84.6 52.5z" fill="#7d74ff" data-fill-palette-color="accent"></path><path d="M77.2 53.1C76.5 53 75.7 53 75 53H72V51H75C75.8 51 76.6 51 77.3 51.1z" fill="#7d74ff" data-fill-palette-color="accent"></path><rect x="65" y="51" width="5" height="2" fill="#7d74ff" data-fill-palette-color="accent"></rect><path d="M63 53H57.8L57.9 51H63z" fill="#7d74ff" data-fill-palette-color="accent"></path><path d="M55.6 52.8C53.7 52.5 52 52 50.4 51.2L51.3 49.4C52.7 50.1 54.2 50.5 55.9 50.8z" fill="#7d74ff" data-fill-palette-color="accent"></path><path d="M48.6 50C47 48.9 45.8 47.5 44.9 45.9L46.7 44.9C47.4 46.2 48.5 47.4 49.8 48.3z" fill="#7d74ff" data-fill-palette-color="accent"></path><path d="M44 43.9C43.7 42.8 43.5 41.7 43.5 40.5 43.5 39.8 43.6 39 43.7 38.3L45.7 38.7C45.6 39.3 45.5 39.9 45.5 40.5 45.5 41.4 45.6 42.4 45.9 43.3z" fill="#7d74ff" data-fill-palette-color="accent"></path><path d="M46.2 36.9L44.4 36.1C45.1 34.4 46.2 32.9 47.7 31.6L49 33.1C47.7 34.3 46.8 35.5 46.2 36.9" fill="#7d74ff" data-fill-palette-color="accent"></path><path d="M50.5 32.1L49.5 30.4C51 29.5 52.7 28.8 54.6 28.4L55 30.4C53.3 30.7 51.8 31.3 50.5 32.1" fill="#7d74ff" data-fill-palette-color="accent"></path><path d="M56.8 30.1L56.6 28.1C57.4 28 58.2 28 59 28H62V30H59C58.3 30 57.5 30 56.8 30.1" fill="#7d74ff" data-fill-palette-color="accent"></path><rect x="64" y="28" width="3" height="2" fill="#7d74ff" data-fill-palette-color="accent"></rect><path d="M52.5 90.3C52.3 90.3 52.1 90.2 51.9 90.1L37.6 80.8C33.9 83.3 29.4 84.7 24.8 84.7 12.8 84.7 3.1 75.7 3.1 64.5S12.8 44.3 24.8 44.3 46.5 53.3 46.5 64.5C46.5 67.5 45.8 70.4 44.4 73.1L53.4 88.6C53.7 89 53.6 89.6 53.2 89.9 53 90.2 52.8 90.3 52.5 90.3M37.6 78.4C37.8 78.4 38 78.5 38.2 78.6L49.2 85.8 42.2 73.8C42 73.5 42 73.1 42.2 72.7 43.6 70.2 44.3 67.5 44.3 64.6 44.3 54.7 35.5 46.6 24.8 46.6S5.3 54.7 5.3 64.6 14.1 82.6 24.8 82.6C29.3 82.6 33.5 81.3 36.9 78.7 37.1 78.5 37.4 78.4 37.6 78.4" fill="#7d74ff" data-fill-palette-color="accent"></path><path d="M69.2 28.9C68.9 28.9 68.7 28.8 68.4 28.6 68 28.2 68 27.7 68.2 27.3L73.2 18.7C72.5 17.2 72.1 15.5 72.1 13.8 72.1 7.2 77.9 1.8 85 1.8S97.9 7.2 97.9 13.8 92.1 25.8 85 25.8C82.3 25.8 79.8 25.1 77.7 23.7L69.8 28.8C69.6 28.8 69.4 28.9 69.2 28.9M85 3.9C79.1 3.9 74.3 8.3 74.3 13.7 74.3 15.2 74.7 16.7 75.4 18.1 75.6 18.4 75.6 18.8 75.4 19.2L72.4 24.4 77 21.4C77.4 21.1 77.9 21.2 78.2 21.4 80.1 22.8 82.4 23.5 84.9 23.5 90.8 23.5 95.6 19.1 95.6 13.7S90.9 3.9 85 3.9" fill="#7d74ff" data-fill-palette-color="accent"></path></svg></g></svg></g><g id="text-0"><path d="M23.538 96.737v0l-1.133-0.325c0.248-1.265 0.342-2.201 0.281-2.807-0.061-0.606-0.299-1.079-0.713-1.421v0l-19.798-16.627 0.894-3.301 26.913 0.7c0.495-0.004 0.939-0.167 1.33-0.488 0.391-0.322 0.912-1.002 1.563-2.04v0l1.042 0.551c-0.38 0.798-0.737 1.595-1.072 2.39-0.335 0.795-0.683 1.642-1.046 2.542v0c-0.793 1.968-1.464 3.743-2.014 5.322v0l-1.133-0.325c0.274-1.401 0.401-2.366 0.383-2.897-0.021-0.524-0.182-0.847-0.482-0.968v0l-7.492-0.632-3.41 8.464 5.849 4.71c0.3 0.121 0.646-0.016 1.037-0.41 0.391-0.394 0.954-1.141 1.687-2.24v0l1.042 0.551c-0.382 0.805-0.741 1.605-1.076 2.399-0.335 0.795-0.683 1.642-1.046 2.542v0c-0.31 0.769-0.569 1.43-0.778 1.985-0.209 0.555-0.485 1.33-0.828 2.325zM6.204 75.698l9.933 7.958 2.958-7.34-12.831-0.768z" fill="#7d74ff" data-fill-palette-color="accent"></path><path d="M40.839 33.274v0c1.221-1.141 2.285-1.906 3.195-2.295 0.904-0.384 1.356-0.576 1.356-0.576v0c0.405 0.433 0.875 0.916 1.41 1.449 0.535 0.533 1.035 0.969 1.501 1.309v0l-0.52 0.983c-1.226-0.809-2.251-1.179-3.073-1.112-0.822 0.068-1.607 0.451-2.355 1.151v0c-0.669 0.626-1.031 1.314-1.085 2.066-0.054 0.751 0.158 1.383 0.637 1.894v0c0.331 0.354 0.785 0.622 1.36 0.804 0.575 0.181 1.313 0.161 2.211-0.061v0l4.558-1.162c0.918-0.231 1.789-0.252 2.612-0.063 0.823 0.19 1.584 0.659 2.284 1.407v0c0.548 0.586 0.931 1.311 1.149 2.177 0.219 0.865 0.156 1.809-0.188 2.832-0.349 1.027-1.085 2.066-2.207 3.115v0c-0.591 0.552-1.32 1.123-2.189 1.713-0.863 0.586-1.838 1.146-2.923 1.682v0c-0.217-0.351-0.499-0.76-0.846-1.229-0.346-0.469-0.698-0.934-1.054-1.394-0.352-0.455-0.656-0.821-0.914-1.097v0l0.519-0.983c0.821 0.523 1.553 0.951 2.195 1.282 0.642 0.341 1.274 0.46 1.897 0.357 0.623-0.103 1.328-0.522 2.116-1.258v0c0.847-0.791 1.293-1.596 1.34-2.415 0.047-0.818-0.169-1.483-0.648-1.995v0c-0.345-0.369-0.796-0.625-1.354-0.768-0.558-0.143-1.192-0.121-1.904 0.065v0l-4.846 1.209c-0.996 0.267-1.918 0.262-2.766-0.014-0.844-0.272-1.551-0.712-2.122-1.323v0c-0.589-0.63-0.992-1.387-1.211-2.272-0.218-0.884-0.189-1.806 0.086-2.764 0.28-0.963 0.873-1.868 1.779-2.714z" fill="#7d74ff" data-fill-palette-color="accent"></path><path d="M94.865 13.885v0c0.424 1.222 0.666 2.465 0.726 3.727 0.054 1.265-0.118 2.476-0.516 3.634-0.395 1.164-1.079 2.214-2.052 3.151-0.973 0.937-2.284 1.691-3.932 2.262v0c-2.852 0.989-5.173 0.946-6.966-0.13-1.796-1.067-3.118-2.823-3.966-5.266v0c-0.424-1.222-0.662-2.462-0.713-3.722-0.054-1.265 0.115-2.486 0.505-3.662 0.384-1.174 1.067-2.238 2.049-3.192 0.981-0.954 2.287-1.713 3.916-2.278v0c1.903-0.66 3.568-0.845 4.995-0.556 1.427 0.29 2.637 0.961 3.629 2.014 0.987 1.056 1.761 2.395 2.325 4.018zM92.08 16.434v0c-0.45-1.299-1.028-2.492-1.734-3.581-0.708-1.095-1.57-1.894-2.586-2.397-1.016-0.503-2.221-0.513-3.615-0.03v0c-1.12 0.389-1.946 0.967-2.478 1.737-0.532 0.769-0.856 1.602-0.974 2.498-0.117 0.896-0.12 1.75-0.01 2.56 0.112 0.817 0.257 1.48 0.433 1.989v0c0.433 1.248 1.007 2.368 1.722 3.361 0.713 0.986 1.573 1.697 2.579 2.132 1.007 0.435 2.159 0.428 3.458-0.023v0c1.012-0.351 1.791-0.871 2.337-1.559 0.546-0.688 0.91-1.446 1.094-2.273 0.182-0.833 0.236-1.643 0.162-2.431-0.073-0.787-0.203-1.449-0.388-1.983z" fill="#7d74ff" data-fill-palette-color="accent"></path><path d="M139.735 18.804v0l0.349 1.375c-0.984 0.632-2.086 1.152-3.305 1.558-1.219 0.406-2.576 0.534-4.071 0.383v0c-1.877-0.188-3.399-0.741-4.566-1.657-1.161-0.916-1.974-2.084-2.442-3.505-0.466-1.428-0.614-2.987-0.444-4.676v0c0.121-1.207 0.434-2.37 0.939-3.491 0.506-1.127 1.189-2.129 2.049-3.004 0.853-0.876 1.878-1.538 3.074-1.987 1.196-0.449 2.558-0.596 4.087-0.443v0c1.146 0.115 2.156 0.413 3.028 0.893 0.873 0.48 1.555 0.969 2.047 1.465 0.492 0.496 0.73 0.825 0.713 0.986v0c-0.035 0.349-0.162 0.803-0.38 1.363-0.219 0.56-0.512 1.052-0.88 1.476v0l-0.965-0.097c-0.115-0.472-0.333-0.995-0.655-1.569-0.322-0.574-0.771-1.093-1.347-1.557-0.57-0.463-1.31-0.741-2.222-0.832v0c-1.18-0.118-2.196 0.152-3.047 0.811-0.852 0.659-1.516 1.541-1.992 2.644-0.476 1.097-0.773 2.235-0.891 3.415v0c-0.245 2.44 0.128 4.255 1.119 5.444 0.99 1.196 2.344 1.881 4.059 2.053v0c0.851 0.085 1.801 0.039 2.848-0.141 1.047-0.179 2.012-0.482 2.895-0.907z" fill="#7d74ff" data-fill-palette-color="accent"></path><path d="M177.72 16.95v0l0.508 0.681c-0.164 0.31-0.422 0.783-0.775 1.419-0.353 0.637-0.734 1.342-1.145 2.116-0.41 0.774-0.825 1.542-1.243 2.303-0.422 0.768-0.785 1.437-1.088 2.009v0c-0.921 1.738-1.598 3.087-2.031 4.047-0.43 0.954-0.709 1.626-0.839 2.015-0.13 0.389-0.195 0.583-0.195 0.583v0c-0.039 0.132 0.07 0.342 0.329 0.631 0.258 0.289 0.565 0.574 0.92 0.854 0.355 0.28 0.645 0.495 0.871 0.645v0l-0.656 0.979c-0.546-0.351-1.203-0.737-1.971-1.159-0.768-0.422-1.461-0.797-2.08-1.126v0c-0.595-0.316-1.31-0.687-2.143-1.113-0.84-0.43-1.558-0.772-2.155-1.028v0l0.656-0.979c0.275 0.115 0.621 0.238 1.04 0.369 0.419 0.131 0.815 0.218 1.187 0.263 0.373 0.045 0.602 0.014 0.69-0.092v0c0 0 0.118-0.166 0.355-0.498 0.231-0.335 0.615-0.951 1.152-1.849 0.54-0.903 1.27-2.224 2.192-3.962v0c0.918-1.732 1.578-3.034 1.977-3.904 0.4-0.871 0.652-1.454 0.756-1.75 0.098-0.299 0.146-0.449 0.147-0.449v0l-1.926-1.89 0.42-0.966c0.429 0.227 0.95 0.466 1.566 0.715 0.615 0.25 1.234 0.471 1.855 0.663 0.628 0.196 1.17 0.353 1.626 0.473zM178.862 12.809v0c-0.524-0.278-0.867-0.696-1.028-1.254-0.156-0.555-0.088-1.107 0.202-1.654v0c0.278-0.524 0.687-0.871 1.228-1.043 0.546-0.168 1.082-0.113 1.605 0.165v0c0.524 0.278 0.87 0.69 1.038 1.236 0.168 0.546 0.113 1.082-0.165 1.606v0c-0.29 0.548-0.712 0.911-1.265 1.091-0.553 0.18-1.091 0.131-1.615-0.147z" fill="#7d74ff" data-fill-palette-color="accent"></path><path d="M204.746 62.493v0l-0.544 0.986c-1.381-0.176-2.462-0.729-3.243-1.657v0c-0.434-0.516-0.664-1.114-0.691-1.795-0.027-0.681 0.266-1.369 0.88-2.061v0c-1.215-0.272-2.33-0.624-3.344-1.056-1.015-0.432-1.886-1.081-2.615-1.947v0c-0.694-0.825-1.054-1.776-1.081-2.854-0.031-1.083 0.51-2.093 1.624-3.031v0c0.737-0.62 1.661-0.992 2.771-1.116 1.11-0.124 2.398 0.171 3.862 0.885 1.468 0.719 3.088 2.007 4.86 3.861v0l2.869-2.413c0.598-0.503 0.86-1.102 0.786-1.798-0.074-0.695-0.371-1.352-0.892-1.97v0c-0.763-0.907-1.544-1.395-2.341-1.464-0.797-0.069-1.516 0.166-2.155 0.704v0c-0.247 0.208-0.5 0.473-0.757 0.795v0l-0.882-0.42c-0.133-0.619-0.146-1.273-0.039-1.962 0.107-0.689 0.243-1.103 0.408-1.241v0c0.144-0.121 0.5-0.201 1.068-0.238 0.567-0.037 1.262 0.035 2.083 0.215 0.826 0.186 1.69 0.533 2.593 1.041 0.903 0.508 1.762 1.247 2.577 2.217v0c0.538 0.639 0.933 1.297 1.186 1.974 0.257 0.682 0.278 1.377 0.064 2.085-0.214 0.708-0.764 1.436-1.651 2.182v0c-0.206 0.173-0.573 0.491-1.101 0.952-0.522 0.457-1.125 0.991-1.809 1.601-0.684 0.611-1.377 1.22-2.08 1.83-0.703 0.609-1.314 1.149-1.832 1.62-0.519 0.472-0.879 0.792-1.08 0.962v0c-0.539 0.489-0.826 0.933-0.861 1.331-0.034 0.399 0.07 0.742 0.313 1.031v0c0.104 0.124 0.246 0.251 0.426 0.381 0.18 0.13 0.389 0.254 0.628 0.37zM202.252 56.892v0l3.581-3.013c-1.568-1.78-3.019-2.814-4.352-3.1-1.333-0.287-2.361-0.127-3.083 0.48v0c-0.614 0.516-0.919 1.09-0.915 1.721 0.003 0.631 0.256 1.246 0.759 1.845v0c0.382 0.454 0.911 0.863 1.587 1.227 0.676 0.364 1.484 0.644 2.423 0.84z" fill="#7d74ff" data-fill-palette-color="accent"></path><path d="M230.119 88.001v0c-2.302 0.742-4.178 1.369-5.627 1.879-1.45 0.51-2.589 0.927-3.419 1.251-0.823 0.322-1.415 0.563-1.775 0.721-0.359 0.158-0.599 0.271-0.719 0.338v0c-0.12 0.067-0.19 0.288-0.211 0.663-0.021 0.375-0.001 0.786 0.059 1.234 0.06 0.448 0.118 0.804 0.174 1.069v0l-1.152 0.245c-0.147-0.632-0.347-1.361-0.599-2.186-0.252-0.825-0.485-1.571-0.701-2.237v0c-0.207-0.641-0.458-1.399-0.754-2.274-0.298-0.881-0.572-1.621-0.822-2.219v0l1.153-0.245c0.117 0.274 0.278 0.597 0.483 0.97 0.205 0.373 0.426 0.705 0.661 0.997 0.236 0.292 0.422 0.43 0.558 0.415v0c0 0 0.19-0.047 0.571-0.142 0.38-0.094 1.029-0.268 1.945-0.521 0.923-0.255 2.19-0.628 3.801-1.119 1.609-0.498 3.655-1.147 6.136-1.948v0c2.462-0.794 4.444-1.444 5.944-1.949 1.505-0.514 2.647-0.924 3.425-1.232 0.779-0.308 1.298-0.518 1.56-0.63 0.261-0.113 0.392-0.169 0.391-0.169v0l-0.072-2.695 0.975-0.399c0.149 0.462 0.357 0.996 0.624 1.604 0.267 0.608 0.556 1.198 0.868 1.769 0.314 0.578 0.593 1.069 0.835 1.472v0l-0.11 0.843c0 0-1.194 0.371-3.581 1.112-2.394 0.744-5.934 1.871-10.621 3.383z" fill="#7d74ff" data-fill-palette-color="accent"></path><path d="M5.749 154.183v0l1.091-0.589c0.731 1.127 1.341 1.897 1.83 2.308 0.486 0.405 1.009 0.588 1.568 0.548v0l26.983-1.981 1.729 3.125-20.689 19.104c-0.369 0.362-0.58 0.806-0.634 1.33-0.061 0.527 0.046 1.419 0.321 2.675v0l-1.187 0.355c-0.296-0.883-0.61-1.745-0.939-2.585-0.327-0.834-0.684-1.722-1.07-2.664v0c-0.843-2.057-1.636-3.877-2.378-5.458v0l1.094-0.58c0.81 1.248 1.417 2.063 1.821 2.444 0.397 0.383 0.752 0.511 1.063 0.383v0l6.076-5.002-3.617-8.827-7.819 0.746c-0.312 0.128-0.47 0.48-0.474 1.057-0.01 0.579 0.114 1.548 0.372 2.906v0l-1.191 0.346c-0.294-0.877-0.606-1.736-0.935-2.576-0.33-0.841-0.686-1.728-1.07-2.664v0c-0.332-0.81-0.622-1.5-0.869-2.068-0.247-0.568-0.606-1.346-1.076-2.333zM34.09 157.303l-13.257 1.282 3.138 7.659 10.184-8.782z" fill="#7d74ff" data-fill-palette-color="accent"></path><path d="M54.33 196.91v0c1.282 1.184 2.157 2.237 2.628 3.158 0.48 0.92 0.72 1.38 0.719 1.38v0c-0.421 0.455-0.889 0.981-1.403 1.579-0.515 0.597-0.93 1.15-1.244 1.658v0l-1.069-0.466c0.748-1.345 1.053-2.444 0.914-3.297-0.134-0.848-0.594-1.636-1.381-2.363v0c-0.703-0.649-1.445-0.973-2.226-0.97-0.787-0.002-1.429 0.266-1.928 0.805v0c-0.343 0.371-0.588 0.865-0.736 1.481-0.143 0.611-0.067 1.378 0.227 2.301v0l1.557 4.659c0.319 0.946 0.409 1.855 0.272 2.728-0.133 0.868-0.562 1.696-1.289 2.482v0c-0.576 0.623-1.307 1.081-2.192 1.374-0.885 0.292-1.874 0.296-2.967 0.01-1.098-0.281-2.236-0.965-3.414-2.054v0c-0.623-0.576-1.274-1.292-1.951-2.147-0.678-0.865-1.339-1.842-1.982-2.932v0c0.352-0.252 0.757-0.576 1.213-0.971 0.466-0.395 0.924-0.797 1.375-1.205 0.451-0.409 0.809-0.757 1.075-1.044v0l1.07 0.465c-0.484 0.892-0.877 1.689-1.179 2.393-0.297 0.698-0.37 1.369-0.221 2.011 0.159 0.642 0.651 1.345 1.478 2.108v0c0.886 0.818 1.757 1.22 2.615 1.206 0.853-0.01 1.529-0.284 2.027-0.824v0c0.361-0.391 0.597-0.884 0.707-1.479 0.105-0.591 0.034-1.248-0.214-1.973v0l-1.626-4.956c-0.36-1.02-0.429-1.983-0.207-2.888 0.222-0.905 0.63-1.679 1.224-2.323v0c0.608-0.658 1.366-1.136 2.275-1.434 0.904-0.293 1.865-0.331 2.885-0.114 1.029 0.217 2.018 0.764 2.968 1.642z" fill="#7d74ff" data-fill-palette-color="accent"></path><path d="M96.219 228.987v0c-0.435 1.275-1.036 2.451-1.803 3.528-0.773 1.075-1.696 1.966-2.771 2.674-1.073 0.702-2.31 1.126-3.713 1.273-1.403 0.147-2.968-0.074-4.697-0.664v0c-2.984-1.019-4.871-2.55-5.661-4.592-0.79-2.043-0.749-4.342 0.124-6.899v0c0.435-1.275 1.036-2.451 1.802-3.528 0.773-1.075 1.699-1.972 2.778-2.693 1.077-0.714 2.325-1.15 3.745-1.305 1.42-0.156 2.981 0.057 4.684 0.638v0c2.002 0.684 3.496 1.603 4.483 2.759 0.987 1.156 1.55 2.487 1.69 3.994 0.142 1.501-0.078 3.106-0.661 4.815zM92.282 229.287v0c0.464-1.358 0.756-2.714 0.877-4.068 0.121-1.354-0.077-2.568-0.594-3.641-0.512-1.065-1.501-1.847-2.967-2.348v0c-1.167-0.398-2.217-0.451-3.15-0.158-0.931 0.287-1.735 0.764-2.411 1.43-0.674 0.66-1.226 1.361-1.658 2.104-0.434 0.749-0.741 1.388-0.921 1.917v0c-0.446 1.307-0.692 2.601-0.738 3.881-0.05 1.272 0.199 2.41 0.745 3.415 0.547 1.005 1.502 1.741 2.867 2.207v0c1.065 0.364 2.043 0.438 2.935 0.223 0.886-0.217 1.672-0.611 2.358-1.181 0.686-0.57 1.254-1.202 1.704-1.896 0.444-0.696 0.762-1.324 0.953-1.885z" fill="#7d74ff" data-fill-palette-color="accent"></path><path d="M141.804 236.173v0l0.648 1.334c-0.872 0.857-1.889 1.621-3.051 2.292-1.162 0.678-2.527 1.099-4.095 1.263v0c-1.957 0.206-3.628-0.039-5.015-0.733-1.393-0.687-2.48-1.711-3.26-3.072-0.78-1.361-1.262-2.923-1.447-4.684v0c-0.132-1.26-0.058-2.521 0.222-3.784 0.281-1.262 0.767-2.431 1.461-3.506 0.693-1.075 1.602-1.97 2.726-2.685 1.131-0.715 2.493-1.156 4.088-1.323v0c1.206-0.127 2.306-0.036 3.301 0.273 0.994 0.302 1.793 0.655 2.397 1.059 0.611 0.403 0.926 0.689 0.944 0.856v0c0.039 0.369 0.006 0.86-0.1 1.473-0.104 0.621-0.302 1.187-0.593 1.699v0l-1.005 0.105c-0.217-0.458-0.55-0.945-0.997-1.46-0.454-0.521-1.025-0.956-1.712-1.304-0.688-0.355-1.507-0.482-2.459-0.381v0c-1.233 0.13-2.214 0.622-2.944 1.477-0.73 0.856-1.223 1.897-1.481 3.123-0.25 1.232-0.31 2.465-0.18 3.698v0c0.267 2.546 1.034 4.325 2.298 5.337 1.271 1.011 2.802 1.423 4.591 1.235v0c0.898-0.094 1.861-0.345 2.888-0.751 1.034-0.407 1.959-0.921 2.775-1.541z" fill="#7d74ff" data-fill-palette-color="accent"></path><path d="M169.103 209.819v0l0.885-0.036c0.171 0.321 0.43 0.821 0.776 1.498 0.346 0.678 0.735 1.422 1.165 2.231 0.431 0.809 0.854 1.617 1.271 2.426 0.419 0.815 0.787 1.52 1.103 2.114v0c0.966 1.813 1.738 3.189 2.314 4.127 0.582 0.934 1.002 1.573 1.261 1.916 0.256 0.337 0.384 0.505 0.384 0.505v0c0.096 0.109 0.344 0.137 0.744 0.085 0.4-0.053 0.825-0.15 1.276-0.291 0.448-0.147 0.804-0.276 1.066-0.385v0l0.464 1.15c-0.623 0.263-1.342 0.605-2.157 1.023-0.809 0.416-1.538 0.796-2.186 1.142v0c-0.618 0.33-1.361 0.733-2.229 1.211-0.862 0.474-1.576 0.897-2.141 1.267v0l-0.473-1.145c0.261-0.17 0.571-0.396 0.932-0.68 0.357-0.29 0.663-0.582 0.917-0.878 0.26-0.299 0.369-0.517 0.327-0.655v0c0 0-0.074-0.197-0.224-0.591-0.146-0.403-0.454-1.102-0.922-2.096-0.469-0.995-1.187-2.398-2.153-4.212v0c-0.966-1.813-1.708-3.147-2.224-4.002-0.516-0.855-0.878-1.41-1.083-1.668-0.2-0.26-0.299-0.39-0.3-0.39v0l-2.761 0.556-0.594-0.921c0.446-0.238 0.958-0.552 1.535-0.944 0.575-0.383 1.129-0.789 1.664-1.218 0.54-0.433 0.995-0.812 1.363-1.139zM166.184 206.405v0c-0.547 0.291-1.111 0.344-1.691 0.157-0.581-0.187-1.023-0.566-1.327-1.137v0c-0.291-0.547-0.348-1.105-0.17-1.673 0.175-0.574 0.536-1.007 1.083-1.298v0c0.541-0.288 1.099-0.345 1.672-0.17 0.571 0.169 1.002 0.527 1.294 1.074v0c0.304 0.571 0.372 1.149 0.204 1.735-0.169 0.586-0.523 1.023-1.065 1.312z" fill="#7d74ff" data-fill-palette-color="accent"></path><path d="M216.202 190.301v0l1.101 0.386c0.072 1.452-0.3 2.663-1.115 3.632v0c-0.456 0.541-1.031 0.885-1.726 1.03-0.699 0.151-1.461-0.028-2.284-0.535v0c-0.065 1.301-0.231 2.513-0.498 3.636-0.257 1.122-0.768 2.136-1.532 3.043v0c-0.725 0.861-1.642 1.401-2.751 1.621-1.109 0.229-2.246-0.147-3.41-1.128v0c-0.773-0.651-1.323-1.536-1.648-2.655-0.331-1.124-0.256-2.505 0.225-4.144 0.481-1.638 1.518-3.535 3.112-5.689v0l-3.008-2.532c-0.624-0.525-1.288-0.688-1.993-0.489-0.7 0.204-1.321 0.627-1.863 1.272v0c-0.798 0.948-1.162 1.84-1.09 2.676 0.067 0.831 0.435 1.529 1.105 2.092v0c0.258 0.217 0.577 0.429 0.958 0.635v0l-0.281 0.978c-0.619 0.254-1.291 0.388-2.017 0.403-0.726 0.014-1.176-0.052-1.351-0.199v0c-0.149-0.126-0.292-0.479-0.428-1.061-0.14-0.576-0.191-1.306-0.153-2.189 0.048-0.884 0.254-1.834 0.616-2.85 0.357-1.02 0.963-2.038 1.818-3.054v0c0.56-0.665 1.17-1.191 1.83-1.577 0.651-0.386 1.363-0.531 2.136-0.434 0.768 0.092 1.614 0.526 2.536 1.302v0c0.216 0.182 0.61 0.505 1.18 0.968 0.565 0.458 1.223 0.985 1.972 1.58 0.749 0.596 1.502 1.203 2.258 1.822 0.751 0.614 1.415 1.143 1.994 1.586 0.579 0.452 0.977 0.77 1.193 0.952v0c0.595 0.465 1.101 0.68 1.519 0.644 0.418-0.036 0.752-0.203 1.004-0.502v0c0.108-0.129 0.216-0.298 0.322-0.508 0.097-0.209 0.186-0.446 0.269-0.712zM210.871 193.871v0l-3.742-3.15c-1.555 1.931-2.36 3.61-2.415 5.035-0.06 1.42 0.287 2.447 1.039 3.081v0c0.649 0.547 1.297 0.761 1.942 0.643 0.65-0.113 1.238-0.482 1.762-1.105v0c0.399-0.474 0.726-1.093 0.981-1.856 0.255-0.763 0.399-1.646 0.433-2.648z" fill="#7d74ff" data-fill-palette-color="accent"></path><path d="M220.433 152.728v0c2.409 0.784 4.385 1.406 5.929 1.865 1.537 0.458 2.757 0.802 3.66 1.032 0.894 0.234 1.543 0.396 1.947 0.485 0.405 0.082 0.676 0.132 0.813 0.147v0c0.143 0.018 0.338-0.124 0.585-0.426 0.247-0.302 0.484-0.661 0.711-1.075 0.221-0.417 0.388-0.756 0.501-1.017v0l1.135 0.497c-0.268 0.628-0.547 1.366-0.838 2.214-0.292 0.854-0.552 1.631-0.779 2.329v0c-0.217 0.666-0.469 1.463-0.756 2.389-0.287 0.927-0.508 1.723-0.661 2.389v0l-1.131-0.506c0.07-0.303 0.135-0.675 0.193-1.117 0.05-0.437 0.065-0.854 0.045-1.25-0.022-0.39-0.096-0.619-0.222-0.689v0c0 0-0.188-0.075-0.564-0.226-0.38-0.159-1.038-0.412-1.974-0.759-0.936-0.347-2.235-0.805-3.899-1.375-1.664-0.57-3.796-1.278-6.398-2.124v0c-2.569-0.836-4.646-1.498-6.23-1.985-1.591-0.489-2.808-0.843-3.651-1.061-0.852-0.213-1.423-0.353-1.712-0.419-0.284-0.064-0.426-0.096-0.426-0.096v0l-1.604 2.316-1.066-0.251c0.156-0.48 0.307-1.062 0.451-1.745 0.149-0.674 0.266-1.352 0.353-2.032 0.089-0.687 0.153-1.275 0.192-1.766v0l0.612-0.64c0 0 1.239 0.417 3.716 1.252 2.484 0.837 6.173 2.051 11.068 3.644z" fill="#7d74ff" data-fill-palette-color="accent"></path><path d="M0 121.84c0-6.217 5.04-11.257 11.257-11.257 6.217 0 11.257 5.04 11.257 11.257 0 6.217-5.04 11.257-11.257 11.257-6.217 0-11.257-5.04-11.257-11.257z" fill="#7d74ff" data-fill-palette-color="accent"></path><path d="M218.848 121.84c0-6.217 5.04-11.257 11.257-11.257 6.217 0 11.257 5.04 11.257 11.257 0 6.217-5.04 11.257-11.257 11.257-6.217 0-11.257-5.04-11.257-11.257z" fill="#7d74ff" data-fill-palette-color="accent"></path></g><g id="text-1"></g></svg></g></svg></g></svg></g><defs></defs></svg><rect width="395.5199999999999" height="138.743164258689" fill="none" stroke="none" visibility="hidden"></rect></g></svg></g></svg>